{
  "asset": {
    "generator": "Khronos glTF Blender I/O v1.5.17",
    "version": "2.0"
  },
  "scene": 0,
  "scenes": [
    {
      "name": "Scene",
      "nodes": [
        0
      ]
    }
  ],
  "nodes": [
    {
      "mesh": 0,
      "name": "sphere_gltf"
    }
  ],
  "materials": [
    {
      "doubleSided": true,
      "name": "brown_mud_02",
      "normalTexture": {
        "index": 0
      },
      "pbrMetallicRoughness": {
        "baseColorTexture": {
          "index": 1
        },
        "metallicFactor": 0,
        "metallicRoughnessTexture": {
          "index": 2
        }
      }
    }
  ],
  "meshes": [
    {
      "name": "Sphere.001",
      "primitives": [
        {
          "attributes": {
            "POSITION": 0,
            "NORMAL": 1,
            "TEXCOORD_0": 2
          },
          "indices": 3,
          "material": 0
        }
      ]
    }
  ],
  "textures": [
    {
      "sampler": 0,
      "source": 0
    },
    {
      "sampler": 0,
      "source": 1
    },
    {
      "sampler": 0,
      "source": 2
    }
  ],
  "images": [
    {
      "mimeType": "image/jpeg",
      "name": "brown_mud_02_nor_gl_4k",
      "uri": "textures/brown_mud_02_nor_gl_1k.jpg"
    },
    {
      "mimeType": "image/jpeg",
      "name": "brown_mud_02_diff_4k",
      "uri": "textures/brown_mud_02_diff_1k.jpg"
    },
    {
      "mimeType": "image/jpeg",
      "name": "brown_mud_02_rough_4k",
      "uri": "textures/brown_mud_02_rough_1k.jpg"
    }
  ],
  "accessors": [
    {
      "bufferView": 0,
      "componentType": 5126,
      "count": 53894,
      "max": [
        0.6610350608825684,
        0.6715335845947266,
        0.662775993347168
      ],
      "min": [
        -0.6610347032546997,
        -0.671227753162384,
        -0.6627635955810547
      ],
      "type": "VEC3"
    },
    {
      "bufferView": 1,
      "componentType": 5126,
      "count": 53894,
      "type": "VEC3"
    },
    {
      "bufferView": 2,
      "componentType": 5126,
      "count": 53894,
      "type": "VEC2"
    },
    {
      "bufferView": 3,
      "componentType": 5123,
      "count": 322170,
      "type": "SCALAR"
    }
  ],
  "bufferViews": [
    {
      "buffer": 0,
      "byteLength": 646728,
      "byteOffset": 0
    },
    {
      "buffer": 0,
      "byteLength": 646728,
      "byteOffset": 646728
    },
    {
      "buffer": 0,
      "byteLength": 431152,
      "byteOffset": 1293456
    },
    {
      "buffer": 0,
      "byteLength": 644340,
      "byteOffset": 1724608
    }
  ],
  "samplers": [
    {
      "magFilter": 9729,
      "minFilter": 9987
    }
  ],
  "buffers": [
    {
      "byteLength": 2368948,
      "uri": "brown_mud_02.bin"
    }
  ]
}